<?xml version="1.0" standalone="no"?>
<!DOCTYPE svg PUBLIC "-//W3C//DTD SVG 20010904//EN"
 "http://www.w3.org/TR/2001/REC-SVG-20010904/DTD/svg10.dtd">
<svg version="1.0" xmlns="http://www.w3.org/2000/svg"
 width="245.000000pt" height="246.000000pt" viewBox="0 0 245.000000 246.000000"
 preserveAspectRatio="xMidYMid meet">

<g transform="translate(0.000000,246.000000) scale(0.100000,-0.100000)"
fill="#000000" stroke="">
<path d="M0 1230 l0 -1230 1225 0 1225 0 0 1230 0 1230 -1225 0 -1225 0 0
-1230z m781 1113 c14 -43 71 -168 162 -355 42 -87 67 -127 79 -128 24 0 31
-16 16 -40 -11 -18 -6 -34 46 -138 98 -193 254 -472 366 -652 5 -8 28 -46 51
-85 23 -38 102 -161 176 -273 73 -111 133 -207 133 -212 0 -21 -58 20 -102 72
-75 88 -288 423 -288 452 0 5 7 6 15 2 8 -3 15 -3 15 0 0 5 -150 255 -158 264
-3 3 -2 -10 2 -29 6 -34 6 -34 -14 -16 -29 26 -133 208 -225 392 -54 110 -85
162 -97 162 -25 1 -53 32 -37 41 12 8 -73 217 -182 448 -27 57 -49 110 -49
118 0 19 40 34 62 23 9 -5 22 -26 29 -46z m99 -717 c0 -22 24 -38 38 -24 8 8
16 3 29 -20 10 -18 21 -32 25 -32 4 0 19 -21 32 -47 14 -27 36 -59 51 -72 32
-29 32 -45 0 -39 -30 6 -32 -8 -4 -38 17 -18 19 -26 10 -43 -13 -24 8 -64 206
-391 169 -279 214 -348 382 -585 19 -27 62 -88 94 -135 l58 -85 -30 -27 c-17
-15 -36 -25 -43 -22 -58 23 -486 679 -744 1139 -77 137 -203 383 -204 397 0
12 53 37 78 38 12 0 22 -6 22 -14z"/>
</g>
</svg>
