<svg width="112" height="234" viewBox="0 0 112 234" fill="none" xmlns="http://www.w3.org/2000/svg">
<path fill-rule="evenodd" clip-rule="evenodd" d="M2.25 1.086C1.013 1.553 0 2.58599 0 3.38199C0 4.17699 2.195 9.47899 4.879 15.164C15.786 38.272 24.28 59.209 23.055 59.966C21.534 60.906 24.331 63.961 26.821 64.08C27.963 64.135 31.061 69.314 36.5 80.261C45.653 98.682 56.074 116.852 59.011 119.51C60.986 121.297 61.005 121.274 60.364 117.912C60.006 116.035 59.934 114.725 60.204 115C61.041 115.853 76 140.873 76 141.42C76 141.705 75.325 141.678 74.5 141.362C73.675 141.045 73 141.134 73 141.56C73 144.508 94.103 177.576 101.881 186.817C106.226 191.978 112 196.102 112 194.043C112 193.488 105.995 183.914 98.656 172.767C91.317 161.62 83.418 149.35 81.104 145.5C78.79 141.65 76.478 137.825 75.968 137C64.815 118.988 49.19 91.095 39.426 71.77C34.195 61.415 33.651 59.798 34.784 57.979C36.26 55.61 35.632 54.021 33.191 53.952C32.035 53.919 29.541 49.887 25.306 41.202C16.182 22.492 10.455 9.987 9.068 5.742C7.645 1.388 5.439 -0.118005 2.25 1.086ZM11.75 77.572C10.237 78.393 9.017 79.387 9.038 79.782C9.112 81.2 21.723 105.776 29.417 119.5C55.189 165.465 98.044 231.143 103.764 233.44C104.458 233.719 106.394 232.722 108.064 231.224L111.101 228.5L105.256 220C102.041 215.325 96.863 207.9 93.748 203.5C77.101 179.981 54.007 143.407 40.845 119.717C36.992 112.78 36.175 110.542 36.961 109.073C37.713 107.668 37.472 106.599 35.978 104.699C33.333 101.336 33.486 100.179 36.5 100.755C39.704 101.368 39.686 99.843 36.452 96.855C35.05 95.56 32.821 92.419 31.498 89.875C30.175 87.331 28.397 84.983 27.546 84.656C26.696 84.33 26 83.429 26 82.654C26 80.606 23.362 78.606 22.5 80C21.645 81.383 19 79.401 19 77.378C19 75.577 15.241 75.678 11.75 77.572Z" fill="white"/>
</svg>
